<?xml version="1.0" encoding="UTF-8"?>
<svg width="131px" height="69px" viewBox="0 0 131 69" version="1.1" xmlns="http://www.w3.org/2000/svg" xmlns:xlink="http://www.w3.org/1999/xlink">
    <!-- Generator: Sketch 52.5 (67469) - http://www.bohemiancoding.com/sketch -->
    <title>Group 2</title>
    <desc>Created with Sketch.</desc>
    <defs>
        <linearGradient x1="100%" y1="50%" x2="0%" y2="50%" id="linearGradient-1">
            <stop stop-color="#A8FF78" offset="0%"></stop>
            <stop stop-color="#78FFD6" offset="100%"></stop>
        </linearGradient>
        <path d="M0.0078125,28.7148438 L0.0078125,7.328125 C0.0078125,6.54687109 0.268226563,5.89583594 0.7890625,5.375 C1.30989844,4.85416406 1.96744395,4.59375 2.76171875,4.59375 L9.96875,4.59375 C12.794285,4.59375 15.0794184,5.37499219 16.8242188,6.9375 C18.5690191,8.50000781 19.4414062,10.5442582 19.4414062,13.0703125 C19.4414062,14.6458412 19.0800817,16.0650979 18.3574219,17.328125 C17.634762,18.5911521 16.6224023,19.6002566 15.3203125,20.3554688 L20.0859375,26.9570312 C20.5937525,27.7122434 20.8476562,28.3958303 20.8476562,29.0078125 C20.8476562,29.6848992 20.6002629,30.2675757 20.1054688,30.7558594 C19.6106746,31.2441431 19.0182326,31.4882812 18.328125,31.4882812 C17.3906203,31.4882812 16.5898471,31.0195359 15.9257812,30.0820312 L10.0078125,21.6835938 L9.96875,21.6835938 L5.3984375,21.6835938 L5.3984375,28.7148438 C5.3984375,29.4960977 5.14127861,30.1536432 4.62695312,30.6875 C4.11262764,31.2213568 3.47786836,31.4882812 2.72265625,31.4882812 C1.94140234,31.4882812 1.29362236,31.2213568 0.779296875,30.6875 C0.264971387,30.1536432 0.0078125,29.4960977 0.0078125,28.7148438 Z M5.3984375,16.9179688 L9.9296875,16.9179688 C11.1666729,16.9179688 12.1399704,16.5794305 12.8496094,15.9023438 C13.5592483,15.225257 13.9140625,14.3007871 13.9140625,13.1289062 C13.9140625,11.9830672 13.5559932,11.0683628 12.8398438,10.3847656 C12.1236943,9.70116846 11.153652,9.359375 9.9296875,9.359375 L5.3984375,9.359375 L5.3984375,16.9179688 Z M24.03125,25.5507812 C24.03125,23.7669182 24.698561,22.3639374 26.0332031,21.3417969 C27.3678452,20.3196563 29.1939988,19.8085938 31.5117188,19.8085938 L36.4726562,19.8085938 L36.4726562,18.9296875 C36.4726562,17.8229111 36.1503938,16.9635447 35.5058594,16.3515625 C34.8613249,15.7395803 33.9401102,15.4335938 32.7421875,15.4335938 C31.3619723,15.4335938 30.0989641,15.9283805 28.953125,16.9179688 C28.3802055,17.3476584 27.8463566,17.5625 27.3515625,17.5625 C26.7005176,17.5625 26.1503929,17.3444032 25.7011719,16.9082031 C25.2519509,16.472003 25.0273438,15.9544301 25.0273438,15.3554688 C25.0273438,14.6262984 25.3984338,13.9101598 26.140625,13.2070312 C26.9739625,12.4257773 28.0156188,11.8235698 29.265625,11.4003906 C30.5156312,10.9772114 31.863274,10.765625 33.3085938,10.765625 C36.0299615,10.765625 38.1360603,11.5045499 39.6269531,12.9824219 C41.117846,14.4602938 41.8632812,16.5468615 41.8632812,19.2421875 L41.8632812,28.7539062 C41.8632812,29.5351602 41.6158879,30.179685 41.1210938,30.6875 C40.6262996,31.195315 40.0078162,31.4492188 39.265625,31.4492188 C38.6145801,31.4492188 38.0481795,31.250653 37.5664062,30.8535156 C37.084633,30.4563782 36.7851568,29.9583363 36.6679688,29.359375 C35.1705654,30.7786529 33.236991,31.4882812 30.8671875,31.4882812 C28.8359273,31.4882812 27.1888084,30.9381565 25.9257812,29.8378906 C24.6627541,28.7376247 24.03125,27.3086025 24.03125,25.5507812 Z M29.4609375,25.3554688 C29.4609375,26.0195346 29.7180964,26.546873 30.2324219,26.9375 C30.7467474,27.328127 31.4400998,27.5234375 32.3125,27.5234375 C33.4974018,27.5234375 34.4869752,27.1490923 35.28125,26.4003906 C36.0755248,25.651689 36.4726562,24.7174535 36.4726562,23.5976562 L36.4726562,23.3632812 L32.234375,23.3632812 C30.3854074,23.3632812 29.4609375,24.0273371 29.4609375,25.3554688 Z M45.4179688,26.9570312 C45.4179688,26.345049 45.6393207,25.8112002 46.0820312,25.3554688 C46.5247418,24.8997373 47.0520803,24.671875 47.6640625,24.671875 C48.1979193,24.671875 48.7187475,24.8736959 49.2265625,25.2773438 C50.5807359,26.4492246 52.0195236,27.0351562 53.5429688,27.0351562 C54.2721391,27.0351562 54.8743466,26.8951837 55.3496094,26.6152344 C55.8248722,26.3352851 56.0625,25.9283881 56.0625,25.3945312 C56.0625,25.173176 56.0201827,24.9811206 55.9355469,24.8183594 C55.850911,24.6555981 55.6946626,24.4960945 55.4667969,24.3398438 C55.2389312,24.183593 55.0436206,24.0664066 54.8808594,23.9882812 C54.7180981,23.9101559 54.4348979,23.7799488 54.03125,23.5976562 L51.9023438,22.71875 C50.079418,21.9765588 48.7252648,21.1529993 47.8398438,20.2480469 C46.9544227,19.3430944 46.5117188,18.1549553 46.5117188,16.6835938 C46.5117188,14.8216053 47.1855401,13.3632865 48.5332031,12.3085938 C49.8808661,11.253901 51.6288955,10.7265625 53.7773438,10.7265625 C56.2903771,10.7265625 58.3736896,11.4296805 60.0273438,12.8359375 C60.6653678,13.3177107 60.984375,13.9296838 60.984375,14.671875 C60.984375,15.2838572 60.7662782,15.8111957 60.3300781,16.2539062 C59.893878,16.6966168 59.3763051,16.9179688 58.7773438,16.9179688 C58.4127586,16.9179688 57.9375029,16.7291686 57.3515625,16.3515625 C56.2187443,15.5572877 55.0143293,15.1601562 53.7382812,15.1601562 C52.3320242,15.1601562 51.6289062,15.6289016 51.6289062,16.5664062 C51.6289062,16.9440123 51.7818995,17.2565092 52.0878906,17.5039062 C52.3938817,17.7513033 52.9309857,18.0247381 53.6992188,18.3242188 L55.6132812,19.125 C57.5273533,19.9062539 58.9335893,20.7428341 59.8320312,21.6347656 C60.7304732,22.5266972 61.1796875,23.7018156 61.1796875,25.1601562 C61.1796875,27.1393328 60.4537833,28.6887965 59.0019531,29.8085938 C57.5501229,30.928391 55.7044383,31.4882812 53.4648438,31.4882812 C52.019524,31.4882812 50.6718812,31.2343775 49.421875,30.7265625 C48.1718688,30.2187475 47.0911504,29.5221398 46.1796875,28.6367188 C45.6718725,28.2070291 45.4179688,27.6471389 45.4179688,26.9570312 Z M65.2421875,28.7148438 L65.2421875,3.28515625 C65.2421875,2.50390234 65.4993464,1.84635684 66.0136719,1.3125 C66.5279974,0.778643164 67.1757773,0.51171875 67.9570312,0.51171875 C68.7252643,0.51171875 69.3665339,0.775387988 69.8808594,1.30273438 C70.3951849,1.83008076 70.6523438,2.49088145 70.6523438,3.28515625 L70.6523438,12.9140625 C72.0846426,11.4817637 73.8945203,10.765625 76.0820312,10.765625 C78.295584,10.765625 80.0761651,11.4915292 81.4238281,12.9433594 C82.7714911,14.3951896 83.4453125,16.3189984 83.4453125,18.7148438 L83.4453125,28.7148438 C83.4453125,29.5221395 83.194664,30.1861953 82.6933594,30.7070312 C82.1920548,31.2278672 81.5507852,31.4882812 80.7695312,31.4882812 C80.0143191,31.4882812 79.3795599,31.2213568 78.8652344,30.6875 C78.3509089,30.1536432 78.09375,29.4960977 78.09375,28.7148438 L78.09375,19.4765625 C78.09375,18.3177025 77.7552117,17.3899774 77.078125,16.6933594 C76.4010383,15.9967413 75.5091201,15.6484375 74.4023438,15.6484375 C73.2955674,15.6484375 72.3938837,16.0032517 71.6972656,16.7128906 C71.0006476,17.4225296 70.6523438,18.3437443 70.6523438,19.4765625 L70.6523438,28.7148438 C70.6523438,29.5091186 70.3951849,30.1699192 69.8808594,30.6972656 C69.3665339,31.224612 68.7252643,31.4882812 67.9570312,31.4882812 C67.1757773,31.4882812 66.5279974,31.2213568 66.0136719,30.6875 C65.4993464,30.1536432 65.2421875,29.4960977 65.2421875,28.7148438 Z M112.605469,28.5585938 C110.808585,26.5924381 109.910156,24.1119941 109.910156,21.1171875 C109.910156,18.1223809 110.81184,15.6484473 112.615234,13.6953125 C114.418629,11.7421777 116.713528,10.765625 119.5,10.765625 C122.000012,10.765625 123.972649,11.5533775 125.417969,13.1289062 L125.417969,3.28515625 C125.417969,2.50390234 125.678383,1.84635684 126.199219,1.3125 C126.720055,0.778643164 127.37109,0.51171875 128.152344,0.51171875 C128.920577,0.51171875 129.558591,0.775387988 130.066406,1.30273438 C130.574221,1.83008076 130.828125,2.49088145 130.828125,3.28515625 L130.828125,28.7539062 C130.828125,29.5351602 130.577476,30.1861953 130.076172,30.7070312 C129.574867,31.2278672 128.946618,31.4882812 128.191406,31.4882812 C127.488278,31.4882812 126.882815,31.2441431 126.375,30.7558594 C125.867185,30.2675757 125.59375,29.6718785 125.554688,28.96875 C124.122389,30.6484459 122.10418,31.4882812 119.5,31.4882812 C116.713528,31.4882812 114.415374,30.5117285 112.605469,28.5585938 Z M115.378906,21.078125 C115.378906,22.6796955 115.860672,23.9947865 116.824219,25.0234375 C117.787765,26.0520885 119.018222,26.5664062 120.515625,26.5664062 C122.013028,26.5664062 123.220699,26.0651092 124.138672,25.0625 C125.056645,24.0598908 125.515625,22.7447998 125.515625,21.1171875 C125.515625,19.4895752 125.05339,18.171229 124.128906,17.1621094 C123.204422,16.1529897 122.000007,15.6484375 120.515625,15.6484375 C119.031243,15.6484375 117.804041,16.1627553 116.833984,17.1914062 C115.863927,18.2200572 115.378906,19.5156172 115.378906,21.078125 Z" id="path-2"></path>
    </defs>
    <g id="Page-1" stroke="none" stroke-width="1" fill="none" fill-rule="evenodd">
        <g id="Group-2" transform="translate(0.000000, -51.000000)">
            <g id="Combined-Shape-2" transform="translate(0.000000, 71.000000)">
                <mask id="mask-3" fill="white">
                    <use xlink:href="#path-2"></use>
                </mask>
                <g id="Combined-Shape">
                    <use fill="#D8D8D8" xlink:href="#path-2"></use>
                    <use fill="url(#linearGradient-1)" xlink:href="#path-2"></use>
                </g>
            </g>
            <text id="3" font-family="CeraRoundBasic-Bold, Cera Round Basic" font-size="100" font-weight="bold" fill="#06F34E" fill-opacity="0.454540308">
                <tspan x="65" y="118">3</tspan>
            </text>
        </g>
    </g>
</svg>