<?xml version="1.0" encoding="UTF-8"?>
<svg width="131px" height="69px" viewBox="0 0 131 69" version="1.1" xmlns="http://www.w3.org/2000/svg" xmlns:xlink="http://www.w3.org/1999/xlink">
    <!-- Generator: Sketch 52.5 (67469) - http://www.bohemiancoding.com/sketch -->
    <title>3</title>
    <desc>Created with Sketch.</desc>
    <defs>
        <linearGradient x1="100%" y1="50%" x2="0%" y2="50%" id="linearGradient-1">
            <stop stop-color="#A8FF78" offset="0%"></stop>
            <stop stop-color="#78FFD6" offset="100%"></stop>
        </linearGradient>
        <path d="M80.0920785,31.8314707 C79.8939737,31.2035337 79.7949219,30.5240341 79.7949219,29.7929688 C79.7949219,28.7838491 80.0390601,27.8723999 80.5273438,27.0585938 C81.0156274,26.2447876 81.8456973,25.3333384 83.0175781,24.3242188 L95.3222656,13.1914062 L76.1816406,13.1914062 C74.4238193,13.1914062 72.9508523,12.6136125 71.7626953,11.4580078 C70.5745383,10.3024031 69.9804688,8.84571191 69.9804688,7.08789062 C69.9804688,5.33006934 70.5745383,3.87337817 71.7626953,2.71777344 C72.9508523,1.5621687 74.4238193,0.984375 76.1816406,0.984375 L107.382812,0.984375 C109.238291,0.984375 110.825189,1.65168604 112.143555,2.98632812 C113.461921,4.32097021 114.121094,5.89973047 114.121094,7.72265625 C114.121094,9.77344775 113.144541,11.6288979 111.191406,13.2890625 L98.203125,25.3007812 C103.281275,26.1471396 107.415349,28.4257627 110.605469,32.1367188 C111.179198,32.8041186 111.701336,33.4946799 112.171882,34.2084033 C112.313057,34.0335558 112.460841,33.8625255 112.615234,33.6953125 C114.418629,31.7421777 116.713528,30.765625 119.5,30.765625 C122.000012,30.765625 123.972649,31.5533775 125.417969,33.1289062 L125.417969,23.2851562 C125.417969,22.5039023 125.678383,21.8463568 126.199219,21.3125 C126.720055,20.7786432 127.37109,20.5117188 128.152344,20.5117188 C128.920577,20.5117188 129.558591,20.775388 130.066406,21.3027344 C130.574221,21.8300808 130.828125,22.4908814 130.828125,23.2851562 L130.828125,48.7539062 C130.828125,49.5351602 130.577476,50.1861953 130.076172,50.7070312 C129.574867,51.2278672 128.946618,51.4882812 128.191406,51.4882812 C127.488278,51.4882812 126.882815,51.2441431 126.375,50.7558594 C125.867185,50.2675757 125.59375,49.6718785 125.554688,48.96875 C124.122389,50.6484459 122.10418,51.4882812 119.5,51.4882812 C117.777039,51.4882812 116.240778,51.1149132 114.891201,50.3681702 C113.968384,54.7306637 111.766704,58.5086349 108.286133,61.7021484 C103.549781,66.0478733 97.6172231,68.2207031 90.4882812,68.2207031 C86.1262803,68.2207031 82.0735864,67.2848401 78.3300781,65.4130859 C74.5865698,63.5413318 71.4453252,60.8639497 68.90625,57.3808594 C68.1575483,56.143874 67.7832031,54.9557349 67.7832031,53.8164062 C67.7832031,52.9740107 67.9323485,52.1941012 68.2306414,51.4766726 C68.1413013,51.4844117 68.0500979,51.4882812 67.9570312,51.4882812 C67.1757773,51.4882812 66.5279974,51.2213568 66.0136719,50.6875 C65.4993464,50.1536432 65.2421875,49.4960977 65.2421875,48.7148438 L65.2421875,23.2851562 C65.2421875,22.5039023 65.4993464,21.8463568 66.0136719,21.3125 C66.5279974,20.7786432 67.1757773,20.5117188 67.9570312,20.5117188 C68.7252643,20.5117188 69.3665339,20.775388 69.8808594,21.3027344 C70.3951849,21.8300808 70.6523438,22.4908814 70.6523438,23.2851562 L70.6523438,32.9140625 C72.0846426,31.4817637 73.8945203,30.765625 76.0820312,30.765625 C77.6306169,30.765625 78.9672932,31.1209044 80.0920785,31.8314707 Z M82.8347541,35.1924381 C83.2417941,36.2240077 83.4453125,37.3981397 83.4453125,38.7148438 L83.4453125,48.7148438 C83.4453125,49.5221395 83.194664,50.1861953 82.6933594,50.7070312 C82.1920548,51.2278672 81.5507852,51.4882812 80.7695312,51.4882812 C80.478245,51.4882812 80.2048781,51.4485721 79.9494292,51.3691534 C83.0019762,54.2701989 86.3846945,55.7207031 90.0976562,55.7207031 C93.5156421,55.7207031 96.2906794,54.792978 98.4228516,52.9375 C100.555024,51.082022 101.621094,48.6080884 101.621094,45.515625 C101.621094,42.4231616 100.465506,40.0631592 98.1542969,38.4355469 C95.8430874,36.8079346 92.4902563,35.9941406 88.0957031,35.9941406 L86.09375,35.9941406 C84.8626593,35.9941406 83.776332,35.7269083 82.8347541,35.1924381 Z M78.1923831,49.5054325 C78.1266276,49.2577183 78.09375,48.9941891 78.09375,48.7148438 L78.09375,39.4765625 C78.09375,38.3177025 77.7552117,37.3899774 77.078125,36.6933594 C76.4010383,35.9967413 75.5091201,35.6484375 74.4023438,35.6484375 C73.2955674,35.6484375 72.3938837,36.0032517 71.6972656,36.7128906 C71.0006476,37.4225296 70.6523438,38.3437443 70.6523438,39.4765625 L70.6523438,48.6434428 C71.6270483,48.0230725 72.7377198,47.7128906 73.984375,47.7128906 C75.6785235,47.7128906 77.0811804,48.3103989 78.1923831,49.5054325 Z M0.0078125,48.7148438 L0.0078125,27.328125 C0.0078125,26.5468711 0.268226563,25.8958359 0.7890625,25.375 C1.30989844,24.8541641 1.96744395,24.59375 2.76171875,24.59375 L9.96875,24.59375 C12.794285,24.59375 15.0794184,25.3749922 16.8242188,26.9375 C18.5690191,28.5000078 19.4414062,30.5442582 19.4414062,33.0703125 C19.4414062,34.6458412 19.0800817,36.0650979 18.3574219,37.328125 C17.634762,38.5911521 16.6224023,39.6002566 15.3203125,40.3554688 L20.0859375,46.9570312 C20.5937525,47.7122434 20.8476562,48.3958303 20.8476562,49.0078125 C20.8476562,49.6848992 20.6002629,50.2675757 20.1054688,50.7558594 C19.6106746,51.2441431 19.0182326,51.4882812 18.328125,51.4882812 C17.3906203,51.4882812 16.5898471,51.0195359 15.9257812,50.0820312 L10.0078125,41.6835938 L9.96875,41.6835938 L5.3984375,41.6835938 L5.3984375,48.7148438 C5.3984375,49.4960977 5.14127861,50.1536432 4.62695312,50.6875 C4.11262764,51.2213568 3.47786836,51.4882812 2.72265625,51.4882812 C1.94140234,51.4882812 1.29362236,51.2213568 0.779296875,50.6875 C0.264971387,50.1536432 0.0078125,49.4960977 0.0078125,48.7148438 Z M5.3984375,36.9179688 L9.9296875,36.9179688 C11.1666729,36.9179688 12.1399704,36.5794305 12.8496094,35.9023438 C13.5592483,35.225257 13.9140625,34.3007871 13.9140625,33.1289062 C13.9140625,31.9830672 13.5559932,31.0683628 12.8398438,30.3847656 C12.1236943,29.7011685 11.153652,29.359375 9.9296875,29.359375 L5.3984375,29.359375 L5.3984375,36.9179688 Z M24.03125,45.5507812 C24.03125,43.7669182 24.698561,42.3639374 26.0332031,41.3417969 C27.3678452,40.3196563 29.1939988,39.8085938 31.5117188,39.8085938 L36.4726562,39.8085938 L36.4726562,38.9296875 C36.4726562,37.8229111 36.1503938,36.9635447 35.5058594,36.3515625 C34.8613249,35.7395803 33.9401102,35.4335938 32.7421875,35.4335938 C31.3619723,35.4335938 30.0989641,35.9283805 28.953125,36.9179688 C28.3802055,37.3476584 27.8463566,37.5625 27.3515625,37.5625 C26.7005176,37.5625 26.1503929,37.3444032 25.7011719,36.9082031 C25.2519509,36.472003 25.0273438,35.9544301 25.0273438,35.3554688 C25.0273438,34.6262984 25.3984338,33.9101598 26.140625,33.2070312 C26.9739625,32.4257773 28.0156188,31.8235698 29.265625,31.4003906 C30.5156312,30.9772114 31.863274,30.765625 33.3085938,30.765625 C36.0299615,30.765625 38.1360603,31.5045499 39.6269531,32.9824219 C41.117846,34.4602938 41.8632812,36.5468615 41.8632812,39.2421875 L41.8632812,48.7539062 C41.8632812,49.5351602 41.6158879,50.179685 41.1210938,50.6875 C40.6262996,51.195315 40.0078162,51.4492188 39.265625,51.4492188 C38.6145801,51.4492188 38.0481795,51.250653 37.5664062,50.8535156 C37.084633,50.4563782 36.7851568,49.9583363 36.6679688,49.359375 C35.1705654,50.7786529 33.236991,51.4882812 30.8671875,51.4882812 C28.8359273,51.4882812 27.1888084,50.9381565 25.9257812,49.8378906 C24.6627541,48.7376247 24.03125,47.3086025 24.03125,45.5507812 Z M29.4609375,45.3554688 C29.4609375,46.0195346 29.7180964,46.546873 30.2324219,46.9375 C30.7467474,47.328127 31.4400998,47.5234375 32.3125,47.5234375 C33.4974018,47.5234375 34.4869752,47.1490923 35.28125,46.4003906 C36.0755248,45.651689 36.4726562,44.7174535 36.4726562,43.5976562 L36.4726562,43.3632812 L32.234375,43.3632812 C30.3854074,43.3632812 29.4609375,44.0273371 29.4609375,45.3554688 Z M45.4179688,46.9570312 C45.4179688,46.345049 45.6393207,45.8112002 46.0820312,45.3554688 C46.5247418,44.8997373 47.0520803,44.671875 47.6640625,44.671875 C48.1979193,44.671875 48.7187475,44.8736959 49.2265625,45.2773438 C50.5807359,46.4492246 52.0195236,47.0351562 53.5429688,47.0351562 C54.2721391,47.0351562 54.8743466,46.8951837 55.3496094,46.6152344 C55.8248722,46.3352851 56.0625,45.9283881 56.0625,45.3945312 C56.0625,45.173176 56.0201827,44.9811206 55.9355469,44.8183594 C55.850911,44.6555981 55.6946626,44.4960945 55.4667969,44.3398438 C55.2389312,44.183593 55.0436206,44.0664066 54.8808594,43.9882812 C54.7180981,43.9101559 54.4348979,43.7799488 54.03125,43.5976562 L51.9023438,42.71875 C50.079418,41.9765588 48.7252648,41.1529993 47.8398438,40.2480469 C46.9544227,39.3430944 46.5117188,38.1549553 46.5117188,36.6835938 C46.5117188,34.8216053 47.1855401,33.3632865 48.5332031,32.3085938 C49.8808661,31.253901 51.6288955,30.7265625 53.7773438,30.7265625 C56.2903771,30.7265625 58.3736896,31.4296805 60.0273438,32.8359375 C60.6653678,33.3177107 60.984375,33.9296838 60.984375,34.671875 C60.984375,35.2838572 60.7662782,35.8111957 60.3300781,36.2539062 C59.893878,36.6966168 59.3763051,36.9179688 58.7773438,36.9179688 C58.4127586,36.9179688 57.9375029,36.7291686 57.3515625,36.3515625 C56.2187443,35.5572877 55.0143293,35.1601562 53.7382812,35.1601562 C52.3320242,35.1601562 51.6289062,35.6289016 51.6289062,36.5664062 C51.6289062,36.9440123 51.7818995,37.2565092 52.0878906,37.5039062 C52.3938817,37.7513033 52.9309857,38.0247381 53.6992188,38.3242188 L55.6132812,39.125 C57.5273533,39.9062539 58.9335893,40.7428341 59.8320312,41.6347656 C60.7304732,42.5266972 61.1796875,43.7018156 61.1796875,45.1601562 C61.1796875,47.1393328 60.4537833,48.6887965 59.0019531,49.8085938 C57.5501229,50.928391 55.7044383,51.4882812 53.4648438,51.4882812 C52.019524,51.4882812 50.6718812,51.2343775 49.421875,50.7265625 C48.1718688,50.2187475 47.0911504,49.5221398 46.1796875,48.6367188 C45.6718725,48.2070291 45.4179688,47.6471389 45.4179688,46.9570312 Z M115.378906,41.078125 C115.378906,42.6796955 115.860672,43.9947865 116.824219,45.0234375 C117.787765,46.0520885 119.018222,46.5664062 120.515625,46.5664062 C122.013028,46.5664062 123.220699,46.0651092 124.138672,45.0625 C125.056645,44.0598908 125.515625,42.7447998 125.515625,41.1171875 C125.515625,39.4895752 125.05339,38.171229 124.128906,37.1621094 C123.204422,36.1529897 122.000007,35.6484375 120.515625,35.6484375 C119.031243,35.6484375 117.804041,36.1627553 116.833984,37.1914062 C115.863927,38.2200572 115.378906,39.5156172 115.378906,41.078125 Z" id="path-2"></path>
    </defs>
    <g id="Page-1" stroke="none" stroke-width="1" fill="none" fill-rule="evenodd">
        <mask id="mask-3" fill="white">
            <use xlink:href="#path-2"></use>
        </mask>
        <g id="Combined-Shape">
            <use fill="#D8D8D8" xlink:href="#path-2"></use>
            <use fill="url(#linearGradient-1)" xlink:href="#path-2"></use>
        </g>
    </g>
</svg>